<mxfile host="app.diagrams.net" modified="2024-01-24T14:39:48.940Z" agent="Mozilla/5.0 (Windows NT 10.0; Win64; x64) AppleWebKit/537.36 (KHTML, like Gecko) Chrome/120.0.0.0 Safari/537.36" etag="uFwpABbiozOjRRseEEuC" version="22.1.21" type="github">
  <diagram id="kgpKYQtTHZ0yAKxKKP6v" name="Page-1">
    <mxGraphModel dx="2284" dy="841" grid="1" gridSize="10" guides="1" tooltips="1" connect="1" arrows="1" fold="1" page="1" pageScale="1" pageWidth="850" pageHeight="1100" math="0" shadow="0">
      <root>
        <mxCell id="0" />
        <mxCell id="1" parent="0" />
        <mxCell id="EplZK_GJPqhbGPy7gpNu-18" value="" style="rounded=0;whiteSpace=wrap;html=1;" vertex="1" parent="1">
          <mxGeometry x="100" y="470" width="650" height="230" as="geometry" />
        </mxCell>
        <mxCell id="EplZK_GJPqhbGPy7gpNu-1" value="XA(Mapics)" style="rounded=0;whiteSpace=wrap;html=1;" vertex="1" parent="1">
          <mxGeometry x="100" y="30" width="650" height="90" as="geometry" />
        </mxCell>
        <mxCell id="EplZK_GJPqhbGPy7gpNu-2" value="ION(Mapics)" style="rounded=0;whiteSpace=wrap;html=1;" vertex="1" parent="1">
          <mxGeometry x="100" y="170" width="650" height="60" as="geometry" />
        </mxCell>
        <mxCell id="EplZK_GJPqhbGPy7gpNu-3" value="Sepasoft MES - Hub - Business Connector" style="rounded=0;whiteSpace=wrap;html=1;" vertex="1" parent="1">
          <mxGeometry x="100" y="260" width="650" height="110" as="geometry" />
        </mxCell>
        <mxCell id="EplZK_GJPqhbGPy7gpNu-7" value="" style="endArrow=classic;startArrow=classic;html=1;rounded=0;entryX=0.571;entryY=1.033;entryDx=0;entryDy=0;entryPerimeter=0;" edge="1" parent="1" target="EplZK_GJPqhbGPy7gpNu-1">
          <mxGeometry width="50" height="50" relative="1" as="geometry">
            <mxPoint x="470" y="170" as="sourcePoint" />
            <mxPoint x="520" y="120" as="targetPoint" />
          </mxGeometry>
        </mxCell>
        <mxCell id="EplZK_GJPqhbGPy7gpNu-8" value="" style="shape=flexArrow;endArrow=classic;html=1;rounded=0;" edge="1" parent="1">
          <mxGeometry width="50" height="50" relative="1" as="geometry">
            <mxPoint x="20" y="440" as="sourcePoint" />
            <mxPoint x="20" y="120" as="targetPoint" />
          </mxGeometry>
        </mxCell>
        <mxCell id="EplZK_GJPqhbGPy7gpNu-9" value="RShip And &lt;br&gt;Backflush" style="text;html=1;align=center;verticalAlign=middle;resizable=0;points=[];autosize=1;strokeColor=none;fillColor=none;" vertex="1" parent="1">
          <mxGeometry x="-10" y="283" width="80" height="40" as="geometry" />
        </mxCell>
        <mxCell id="EplZK_GJPqhbGPy7gpNu-10" value="" style="endArrow=classic;startArrow=classic;html=1;rounded=0;entryX=0.5;entryY=1;entryDx=0;entryDy=0;" edge="1" parent="1" source="EplZK_GJPqhbGPy7gpNu-3" target="EplZK_GJPqhbGPy7gpNu-2">
          <mxGeometry width="50" height="50" relative="1" as="geometry">
            <mxPoint x="425" y="239.28932188134524" as="sourcePoint" />
            <mxPoint x="425" y="189.28932188134524" as="targetPoint" />
          </mxGeometry>
        </mxCell>
        <mxCell id="EplZK_GJPqhbGPy7gpNu-11" value="" style="shape=flexArrow;endArrow=classic;html=1;rounded=0;" edge="1" parent="1">
          <mxGeometry width="50" height="50" relative="1" as="geometry">
            <mxPoint x="800" y="80" as="sourcePoint" />
            <mxPoint x="800" y="450" as="targetPoint" />
          </mxGeometry>
        </mxCell>
        <mxCell id="EplZK_GJPqhbGPy7gpNu-12" value="BOR- Bill of Resources&lt;br&gt;Build Plan&lt;br&gt;Production Order&lt;br&gt;Facilities" style="text;html=1;align=center;verticalAlign=middle;resizable=0;points=[];autosize=1;strokeColor=none;fillColor=none;" vertex="1" parent="1">
          <mxGeometry x="765" y="178" width="150" height="70" as="geometry" />
        </mxCell>
        <mxCell id="EplZK_GJPqhbGPy7gpNu-14" value="Spoke: SHP" style="rounded=0;whiteSpace=wrap;html=1;" vertex="1" parent="1">
          <mxGeometry x="160" y="500" width="120" height="180" as="geometry" />
        </mxCell>
        <mxCell id="EplZK_GJPqhbGPy7gpNu-15" value="Spoke: JC" style="rounded=0;whiteSpace=wrap;html=1;" vertex="1" parent="1">
          <mxGeometry x="330" y="510" width="120" height="180" as="geometry" />
        </mxCell>
        <mxCell id="EplZK_GJPqhbGPy7gpNu-16" value="Spoke: MCB" style="rounded=0;whiteSpace=wrap;html=1;" vertex="1" parent="1">
          <mxGeometry x="510" y="500" width="120" height="180" as="geometry" />
        </mxCell>
        <mxCell id="EplZK_GJPqhbGPy7gpNu-19" value="SSZ" style="text;html=1;strokeColor=none;fillColor=none;align=center;verticalAlign=middle;whiteSpace=wrap;rounded=0;" vertex="1" parent="1">
          <mxGeometry x="380" y="430" width="60" height="30" as="geometry" />
        </mxCell>
        <mxCell id="EplZK_GJPqhbGPy7gpNu-20" value="Process Cell" style="rounded=0;whiteSpace=wrap;html=1;" vertex="1" parent="1">
          <mxGeometry x="370" y="330" width="120" height="60" as="geometry" />
        </mxCell>
        <mxCell id="EplZK_GJPqhbGPy7gpNu-21" value="" style="endArrow=classic;startArrow=classic;html=1;rounded=0;entryX=0.5;entryY=1;entryDx=0;entryDy=0;" edge="1" parent="1" source="EplZK_GJPqhbGPy7gpNu-14" target="EplZK_GJPqhbGPy7gpNu-20">
          <mxGeometry width="50" height="50" relative="1" as="geometry">
            <mxPoint x="400" y="460" as="sourcePoint" />
            <mxPoint x="450" y="410" as="targetPoint" />
          </mxGeometry>
        </mxCell>
        <mxCell id="EplZK_GJPqhbGPy7gpNu-22" value="" style="endArrow=classic;startArrow=classic;html=1;rounded=0;" edge="1" parent="1" source="EplZK_GJPqhbGPy7gpNu-15">
          <mxGeometry width="50" height="50" relative="1" as="geometry">
            <mxPoint x="400" y="460" as="sourcePoint" />
            <mxPoint x="430" y="390" as="targetPoint" />
          </mxGeometry>
        </mxCell>
        <mxCell id="EplZK_GJPqhbGPy7gpNu-23" value="" style="endArrow=classic;startArrow=classic;html=1;rounded=0;entryX=0.5;entryY=0;entryDx=0;entryDy=0;exitX=0.5;exitY=1;exitDx=0;exitDy=0;" edge="1" parent="1" source="EplZK_GJPqhbGPy7gpNu-20" target="EplZK_GJPqhbGPy7gpNu-16">
          <mxGeometry width="50" height="50" relative="1" as="geometry">
            <mxPoint x="430" y="400" as="sourcePoint" />
            <mxPoint x="450" y="410" as="targetPoint" />
          </mxGeometry>
        </mxCell>
      </root>
    </mxGraphModel>
  </diagram>
</mxfile>
